<svg width="315" height="84" viewBox="0 0 315 84" fill="none" xmlns="http://www.w3.org/2000/svg">
<g clip-path="url(#clip0_2_17)">
<path d="M0.0710722 65.0025V18.6808H20.1559C23.6843 18.6808 26.6472 19.1558 29.0447 20.1057C31.4573 21.0557 33.2743 22.3977 34.4957 24.1317C35.7321 25.8658 36.3504 27.9089 36.3504 30.2612C36.3504 31.9651 35.9734 33.5182 35.2195 34.9205C34.4806 36.3228 33.4402 37.499 32.0982 38.4489C30.7562 39.3838 29.188 40.0322 27.3936 40.3941V40.8464C29.384 40.9218 31.1935 41.427 32.822 42.3618C34.4504 43.2816 35.7472 44.5558 36.7122 46.1843C37.6773 47.7977 38.1598 49.6976 38.1598 51.884C38.1598 54.4172 37.4963 56.6715 36.1694 58.6468C34.8576 60.6221 32.9878 62.1752 30.5601 63.3061C28.1325 64.437 25.2374 65.0025 21.8748 65.0025H0.0710722ZM12.6467 54.9601H18.5274C20.6384 54.9601 22.2216 54.568 23.2771 53.7839C24.3327 52.9848 24.8604 51.8086 24.8604 50.2555C24.8604 49.1699 24.6116 48.2501 24.114 47.4961C23.6164 46.7422 22.9077 46.1692 21.9879 45.7772C21.0832 45.3851 19.99 45.1891 18.7083 45.1891H12.6467V54.9601ZM12.6467 37.4085H17.8036C18.9043 37.4085 19.8769 37.2351 20.7213 36.8883C21.5657 36.5415 22.2216 36.0439 22.6891 35.3955C23.1716 34.732 23.4129 33.9253 23.4129 32.9754C23.4129 31.5429 22.9002 30.4497 21.8748 29.6958C20.8495 28.9267 19.5527 28.5422 17.9845 28.5422H12.6467V37.4085ZM48.9848 65.0025V18.6808H68.9791C72.417 18.6808 75.4252 19.3065 78.0037 20.5581C80.5821 21.8096 82.5876 23.6115 84.0201 25.9638C85.4526 28.3161 86.1688 31.1358 86.1688 34.4229C86.1688 37.7402 85.4299 40.5373 83.9522 42.8142C82.4896 45.0911 80.4314 46.81 77.7775 47.9711C75.1387 49.1322 72.0551 49.7127 68.5267 49.7127H56.5844V39.9417H65.9935C67.4712 39.9417 68.7303 39.7608 69.7707 39.3989C70.8262 39.0219 71.6329 38.4263 72.1909 37.6121C72.7638 36.7978 73.0503 35.7348 73.0503 34.4229C73.0503 33.096 72.7638 32.0179 72.1909 31.1885C71.6329 30.3441 70.8262 29.7259 69.7707 29.3339C68.7303 28.9267 67.4712 28.7232 65.9935 28.7232H61.5604V65.0025H48.9848ZM76.1264 43.7415L87.7068 65.0025H74.0455L62.7365 43.7415H76.1264ZM110.474 18.6808V65.0025H97.8985V18.6808H110.474ZM140.626 65.0025H122.803V18.6808H140.445C145.21 18.6808 149.327 19.6081 152.795 21.4628C156.278 23.3024 158.962 25.9562 160.847 29.4243C162.747 32.8774 163.697 37.0164 163.697 41.8416C163.697 46.6668 162.754 50.8134 160.869 54.2815C158.984 57.7345 156.316 60.3884 152.863 62.2431C149.409 64.0827 145.331 65.0025 140.626 65.0025ZM135.379 54.3268H140.174C142.466 54.3268 144.418 53.9573 146.032 53.2185C147.66 52.4796 148.897 51.2055 149.741 49.396C150.601 47.5866 151.03 45.0685 151.03 41.8416C151.03 38.6148 150.593 36.0966 149.719 34.2872C148.859 32.4778 147.593 31.2036 145.919 30.4648C144.26 29.7259 142.225 29.3565 139.812 29.3565H135.379V54.3268ZM205.966 33.9706C205.77 33.1714 205.461 32.4702 205.039 31.8671C204.617 31.2489 204.089 30.7286 203.456 30.3064C202.837 29.8692 202.114 29.545 201.284 29.3339C200.47 29.1077 199.573 28.9946 198.593 28.9946C196.482 28.9946 194.68 29.4997 193.187 30.51C191.709 31.5203 190.578 32.9754 189.794 34.8753C189.025 36.7752 188.641 39.0671 188.641 41.7512C188.641 44.4653 189.01 46.7874 189.749 48.7175C190.488 50.6476 191.589 52.1253 193.051 53.1506C194.514 54.176 196.331 54.6887 198.502 54.6887C200.417 54.6887 202.008 54.4097 203.275 53.8518C204.556 53.2939 205.514 52.5022 206.147 51.4769C206.78 50.4515 207.097 49.2453 207.097 47.858L209.268 48.0842H198.683V39.1275H219.22V45.551C219.22 49.773 218.323 53.3843 216.529 56.385C214.75 59.3706 212.292 61.6625 209.155 63.2609C206.034 64.8441 202.453 65.6358 198.412 65.6358C193.903 65.6358 189.945 64.6783 186.537 62.7633C183.13 60.8483 180.468 58.1191 178.553 54.5756C176.653 51.0321 175.703 46.8176 175.703 41.9321C175.703 38.1021 176.284 34.7094 177.445 31.754C178.621 28.7986 180.25 26.3031 182.33 24.2674C184.411 22.2167 186.816 20.6712 189.546 19.6307C192.275 18.5752 195.2 18.0475 198.321 18.0475C201.066 18.0475 203.614 18.4395 205.966 19.2236C208.334 19.9926 210.422 21.0934 212.231 22.5258C214.056 23.9432 215.526 25.6245 216.642 27.5697C217.758 29.5148 218.436 31.6484 218.678 33.9706H205.966ZM231.453 65.0025V18.6808H264.837V28.8137H244.029V36.7752H263.119V46.9081H244.029V54.8696H264.747V65.0025H231.453ZM302.414 33.1563C302.293 31.6484 301.728 30.4723 300.718 29.6279C299.722 28.7835 298.207 28.3613 296.171 28.3613C294.875 28.3613 293.812 28.5196 292.982 28.8363C292.168 29.1378 291.565 29.5525 291.173 30.0803C290.781 30.608 290.577 31.2112 290.562 31.8897C290.532 32.4476 290.63 32.9527 290.856 33.4051C291.097 33.8424 291.474 34.242 291.987 34.6039C292.5 34.9507 293.156 35.2673 293.955 35.5538C294.754 35.8403 295.704 36.0966 296.805 36.3228L300.604 37.1371C303.168 37.6799 305.362 38.3961 307.186 39.2858C309.011 40.1754 310.504 41.2234 311.665 42.4297C312.826 43.6209 313.678 44.9629 314.221 46.4557C314.778 47.9485 315.065 49.577 315.08 51.3412C315.065 54.3871 314.303 56.9655 312.796 59.0765C311.288 61.1876 309.131 62.7934 306.327 63.8942C303.537 64.9949 300.182 65.5453 296.262 65.5453C292.236 65.5453 288.722 64.9497 285.722 63.7585C282.736 62.5673 280.414 60.7352 278.755 58.2623C277.112 55.7743 276.283 52.5927 276.267 48.7175H288.21C288.285 50.1349 288.64 51.3261 289.273 52.2911C289.906 53.2562 290.796 53.9875 291.942 54.4851C293.103 54.9827 294.483 55.2315 296.081 55.2315C297.423 55.2315 298.546 55.0656 299.451 54.7339C300.356 54.4022 301.042 53.9423 301.509 53.3542C301.977 52.7661 302.218 52.0951 302.233 51.3412C302.218 50.6325 301.984 50.0143 301.532 49.4865C301.095 48.9437 300.371 48.4612 299.36 48.039C298.35 47.6017 296.986 47.1946 295.267 46.8176L290.653 45.8224C286.551 44.9328 283.317 43.4475 280.949 41.3666C278.597 39.2707 277.429 36.4133 277.444 32.7944C277.429 29.8541 278.213 27.2832 279.796 25.0817C281.394 22.8651 283.603 21.1386 286.423 19.9022C289.258 18.6657 292.507 18.0475 296.171 18.0475C299.911 18.0475 303.145 18.6732 305.874 19.9248C308.604 21.1763 310.707 22.9405 312.185 25.2174C313.678 27.4792 314.432 30.1255 314.447 33.1563H302.414Z" fill="#232F6F"/>
<rect x="0.17099" y="-0.10462" width="110.949" height="12.57" fill="#232F6F"/>
<rect x="97.898" y="71.5396" width="216.85" height="12.57" fill="#232F6F"/>
</g>
<defs>
<clipPath id="clip0_2_17">
<rect width="315" height="84" fill="white"/>
</clipPath>
</defs>
</svg>
